<svg xmlns="http://www.w3.org/2000/svg" xmlns:svg="http://www.w3.org/2000/svg" id="svg2" width="256" height="256" version="1.1" xml:space="preserve"><metadata id="metadata8"/><defs id="defs6"><clipPath id="clipPath18" clipPathUnits="userSpaceOnUse"><path id="path20" d="m 0,0 5244,0 0,1870.87 -5244,0 L 0,0 z"/></clipPath></defs><g id="g10" display="inline" transform="matrix(1.25,0,0,-1.25,3.2359136e-4,364.6925)"><g id="g16" clip-path="url(#clipPath18)" transform="matrix(0.1729173,0,0,0.1729173,-5.725502,4.0242789)"><path id="path22" fill="#009534" fill-opacity="1" fill-rule="nonzero" stroke="none" d="m 667.434,1427.23 c 5.625,40.32 50,105 131.25,105 81.25,0 263.75,0 292.496,0 28.75,0 62.5,-6.25 83.75,40 -1.25,-30 -8.75,-130 -11.25,-146.25 -2.5,-16.25 -22.5,-137.5 -136.246,-138.75 -113.75,0 -297.5,0 -297.5,0 0,0 -58.75,6.88 -88.438,-46.25 -0.191,-0.39 20.938,152.5 25.938,186.25"/><path id="path24" fill="#84b819" fill-opacity="1" fill-rule="nonzero" stroke="none" d="m 135.7852,939.398 c 11.2304,81.493 99.8238,212.27 262.0348,212.27 162.215,0 526.571,0 583.969,0 57.399,0 124.781,-12.637 167.201,80.862 -2.49,-60.647 -17.47,-262.811 -22.46,-295.659 -4.99,-32.851 -44.92,-277.973 -272.014,-280.5 -227.098,0 -593.95,0 -593.95,0 0,0 -118.9879,13.098 -176.5621,-93.5 -0.3828,-0.801 41.8008,308.301 51.7813,376.527"/></g></g></svg>